<svg width="20" height="20" viewBox="0 0 20 20" fill="none" xmlns="http://www.w3.org/2000/svg">
<circle cx="10" cy="10" r="10" fill="#FDD9BE"/>
<path d="M9.68052 11.9463L8.57318 4.73389L8.16406 4.79956L9.25857 12.012L9.68052 11.9463Z" fill="#EC6D13"/>
<path d="M7.64938 15.3723L7.50446 14.4099L6.51562 14.542L6.67339 15.5308L7.64938 15.3723Z" fill="#EC6D13"/>
<path d="M15.3315 12.6247L15.173 11.6487L10.875 12.3084L11.0199 13.2836L15.3315 12.6247Z" fill="#EC6D13"/>
<path d="M9.49445 13.5286L10.4697 13.3837L10.3248 12.4077L9.33594 12.5662L9.49445 13.5286Z" fill="#EC6D13"/>
<path d="M9.19626 15.1362L9.03774 14.1602L8.0625 14.3187L8.20743 15.2947L9.19626 15.1362Z" fill="#EC6D13"/>
<path d="M6.29688 13.0247L6.4418 14.0007L7.4178 13.8558L7.27212 12.8669L6.29688 13.0247Z" fill="#EC6D13"/>
<path d="M11.1094 13.8427L11.2671 14.8315L15.5787 14.1589L15.421 13.1965L11.1094 13.8427Z" fill="#EC6D13"/>
<path d="M9.73868 15.0493L10.7147 14.9044L10.5562 13.9155L9.59375 14.074L9.73868 15.0493Z" fill="#EC6D13"/>
<path d="M7.82031 12.7921L7.97883 13.781L8.94124 13.6225L8.79631 12.6472L7.82031 12.7921Z" fill="#EC6D13"/>
<path d="M6.62214 12.4215L5.42195 4.58936L5 4.66861L6.21302 12.4736L6.62214 12.4215Z" fill="#EC6D13"/>
<path d="M7.19079 12.3164L5.89851 3.93018L5.47656 4.00943L6.78167 12.3956L7.19079 12.3164Z" fill="#EC6D13"/>
<path d="M8.16773 12.1815L6.79695 3.28125L6.375 3.34768L7.73294 12.2343L8.16773 12.1815Z" fill="#EC6D13"/>
<path d="M8.71607 12.0894L7.46381 3.98022L7.05469 4.04665L8.30696 12.1551L8.71607 12.0894Z" fill="#EC6D13"/>
<path d="M10.2482 11.8511L9.08805 4.37451L8.67969 4.44094L9.83987 11.9032L10.2482 11.8511Z" fill="#EC6D13"/>
</svg>
